<svg id="Ebene_1" data-name="Ebene 1" xmlns="http://www.w3.org/2000/svg" viewBox="0 0 42.52 42.52"><defs><style>.cls-1,.cls-2{fill:#b9bf77;}.cls-2{stroke:#b9bf77;stroke-miterlimit:10;}</style></defs><title>Zeichenfläche 1</title><g id="Ebene_2" data-name="Ebene 2"><g id="CD"><path class="cls-1" d="M23.65,9.48a11.12,11.12,0,1,0,11.1,11.13v-.06A11.11,11.11,0,0,0,23.65,9.48Zm0,18.27a7.15,7.15,0,1,1,7.14-7.14h0A7.14,7.14,0,0,1,23.65,27.75Z"/><circle class="cls-1" cx="8.79" cy="13.96" r="2.14"/><path class="cls-2" d="M29.6,6.4s.07-4.95-5.44-4.95c0,0-6.88-.66-6.88,4.87,0,0-16.51-.53-16.51,5.51L1,36.35H41.75V11.5S41.6,6.4,29.6,6.4Zm8.81,27.12H4.35L4.11,13c0-4.52,15-4.14,15-4.14,0-4.62,4.57-4.55,4.57-4.55,4.61,0,4,4.54,4,4.54,10.05,0,10.75,3.88,10.75,3.88Z"/><rect class="cls-2" x="27.25" y="6.15" width="2.28" height="5.67"/><rect class="cls-2" x="17.46" y="6.15" width="2.28" height="5.67"/><rect class="cls-2" x="12.22" y="38.82" width="18.57" height="2.28"/></g></g></svg>