<svg xmlns="http://www.w3.org/2000/svg" xmlns:xlink="http://www.w3.org/1999/xlink" viewBox="0 0 42.52 42.52"><defs><style>.cls-1,.cls-3{fill:none;}.cls-2{clip-path:url(#clip-path);}.cls-3{stroke:#a0d4eb;stroke-miterlimit:10;stroke-width:4.16px;}.cls-4{clip-path:url(#clip-path-2);}</style><clipPath id="clip-path"><rect class="cls-1" x="3.26" y="3.26" width="36" height="36"/></clipPath><clipPath id="clip-path-2"><rect class="cls-1" x="3.26" y="3.06" width="21.92" height="18.22"/></clipPath></defs><title>Zeichenfläche 1 Kopie 2</title><g id="Ebene_3" data-name="Ebene 3"><g class="cls-2"><path class="cls-3" d="M2.27,26.26a16.49,16.49,0,0,0,6.62,1.81,15.7,15.7,0,0,0,6.51-1.81A16,16,0,0,1,22,24.45a16,16,0,0,1,6.62,1.81"/><path class="cls-3" d="M35.27,28.07a16,16,0,0,1-6.62-1.81"/><path class="cls-3" d="M28.67,26.26a16.49,16.49,0,0,0,6.62,1.81,15.7,15.7,0,0,0,6.51-1.81,16,16,0,0,1,6.63-1.81,16,16,0,0,1,6.62,1.81"/><path class="cls-3" d="M2.27,35.54a16.49,16.49,0,0,0,6.62,1.81,15.7,15.7,0,0,0,6.51-1.81A16,16,0,0,1,22,33.72a15.94,15.94,0,0,1,6.62,1.82"/><path class="cls-3" d="M35.27,37.35a16,16,0,0,1-6.62-1.81"/><path class="cls-3" d="M28.67,35.54a16.49,16.49,0,0,0,6.62,1.81,15.7,15.7,0,0,0,6.51-1.81,16,16,0,0,1,6.63-1.82,15.94,15.94,0,0,1,6.62,1.82"/><g class="cls-4"><path class="cls-3" d="M2.27,16.64a16.49,16.49,0,0,0,6.62,1.81,15.7,15.7,0,0,0,6.51-1.81A16,16,0,0,1,22,14.82a15.94,15.94,0,0,1,6.62,1.82"/><path class="cls-3" d="M2.27,7A16.49,16.49,0,0,0,8.89,8.84,15.7,15.7,0,0,0,15.4,7,16,16,0,0,1,22,5.22,16,16,0,0,1,28.65,7"/></g></g></g></svg>