<?xml version="1.0" encoding="utf-8"?>
<!-- Generator: Adobe Illustrator 22.1.0, SVG Export Plug-In . SVG Version: 6.00 Build 0)  -->
<svg version="1.1" id="Ebene_1" xmlns="http://www.w3.org/2000/svg" xmlns:xlink="http://www.w3.org/1999/xlink" x="0px" y="0px"
	 width="42.5px" height="42.5px" viewBox="0 0 42.5 42.5" style="enable-background:new 0 0 42.5 42.5;" xml:space="preserve">
<style type="text/css">
	.st0{fill:none;stroke:#7CBFE6;stroke-width:4.5;stroke-miterlimit:10;}
</style>
<title>Zeichenfläche 1 Kopie</title>
<g id="Ebene_2_1_">
	<g id="Ebene_2-2">
		<g id="CD">
			<circle class="st0" cx="24.3" cy="33.7" r="4.7"/>
			<path class="st0" d="M34.3,25.6h-2.2c-1.8,0-3.4-1-4.3-2.6l-2-4c-0.4-0.8-1.4-1.2-2.2-0.8c0,0,0,0,0,0c-0.3,0.2-0.6,0.4-0.7,0.8
				L21,22.8c-0.8,1.7-2.5,2.7-4.4,2.7h-2.4c-3.1,0-5.5-2.5-5.6-5.5v-5.9c0-2.3,1.9-4.1,4.2-4.1h22.9c2.3,0,4.2,1.9,4.2,4.2V20
				C39.9,23.1,37.4,25.6,34.3,25.6z"/>
			<path class="st0" d="M2.6,5.4v16.8c0,5.7,4.7,10.4,10.4,10.4c0,0,0,0,0,0h6.7"/>
		</g>
	</g>
</g>
</svg>
