<svg id="Ebene_1" data-name="Ebene 1" xmlns="http://www.w3.org/2000/svg" width="25.658mm" height="25.658mm" viewBox="0 0 72.73 72.73"><title>Map_Elemente</title><path d="M70.439,46.172l.015,0L60.306,15.061c-.89-3.822-4.7-6.574-9.175-6.574a11.527,11.527,0,0,0-10.07,6.191,15.525,15.525,0,0,0-5.33-.791A13.892,13.892,0,0,0,31.6,14.5a11.209,11.209,0,0,0-10-6.015,9.282,9.282,0,0,0-8.763,5.332l-.006,0-.04.121a7.712,7.712,0,0,0-.321.985L2.279,46.169l.012,0a13.482,13.482,0,1,0,26.157,4.874l.285-.133c3.317-1.57,4.983-2.358,7.49-2.358,2.606,0,4.27.654,7.028,1.737l1.019.4c0,.02,0,.039,0,.059a13.494,13.494,0,1,0,26.172-4.577ZM21.6,12.987c2.915,0,6.426,2.387,6.527,5.377L25,41.75A13.424,13.424,0,0,0,9.545,38.4L16.95,15.7C17.629,13.848,19.764,12.987,21.6,12.987Zm-6.63,46.756a8.994,8.994,0,1,1,8.994-8.994A9,9,0,0,1,14.969,59.743ZM36.223,44.055A16.483,16.483,0,0,0,28.99,45.83l3.6-26.915a9.238,9.238,0,0,1,3.2-.528,10.753,10.753,0,0,1,4.459.777L43.785,45.67A19.183,19.183,0,0,0,36.223,44.055Zm8.461-25.692c.1-3.038,3.508-5.376,6.447-5.376a5.028,5.028,0,0,1,4.568,2.46L63.188,38.4a13.419,13.419,0,0,0-15.394,3.282Zm13.077,41.38a8.994,8.994,0,1,1,8.994-8.994A9,9,0,0,1,57.761,59.743Z" fill="#203745"/></svg>