<svg id="Ebene_1" data-name="Ebene 1" xmlns="http://www.w3.org/2000/svg" width="25.658mm" height="25.658mm" viewBox="0 0 72.73 72.73"><title>Map_Elemente</title><path d="M41.1,45.231a9.51,9.51,0,0,0-8.6,5.485H23.485A13.909,13.909,0,0,1,9.592,36.823V10.737h-4.5V36.823a18.424,18.424,0,0,0,18.44,18.393h8.09A9.5,9.5,0,1,0,41.1,45.231Zm0,14.512a5.006,5.006,0,1,1,5.005-5.006A5.012,5.012,0,0,1,41.1,59.743ZM58.909,15.7H23.324a8.8,8.8,0,0,0-8.739,8.683v9.128A11,11,0,0,0,25.505,44.34h3.671a9.875,9.875,0,0,0,8.806-5.517l2.876-5.876A.43.43,0,0,1,41,32.778a.351.351,0,0,1,.475.178l3.187,6.219A9.6,9.6,0,0,0,53.228,44.4H56.7A10.951,10.951,0,0,0,67.637,33.483V24.415A8.788,8.788,0,0,0,58.909,15.7Zm4.228,17.783A6.443,6.443,0,0,1,56.7,39.9H53.238a5.123,5.123,0,0,1-4.571-2.784L45.5,30.926a4.848,4.848,0,0,0-4.331-2.685,4.81,4.81,0,0,0-4.335,2.7l-2.892,5.909a5.346,5.346,0,0,1-4.767,2.991H25.513a6.472,6.472,0,0,1-6.428-6.357V24.405A4.278,4.278,0,0,1,23.33,20.2H58.9a4.272,4.272,0,0,1,4.239,4.229Z" fill="#203745"/></svg>