<svg xmlns="http://www.w3.org/2000/svg" xmlns:xlink="http://www.w3.org/1999/xlink" viewBox="0 0 42.52 42.52"><defs><style>.cls-1,.cls-3,.cls-4,.cls-5{fill:none;}.cls-2{clip-path:url(#clip-path);}.cls-3,.cls-4,.cls-5{stroke:#b9bf77;stroke-width:4.16px;}.cls-3,.cls-4{stroke-linecap:round;}.cls-3,.cls-5{stroke-miterlimit:10;}.cls-4{stroke-linejoin:round;}</style><clipPath id="clip-path"><rect class="cls-1" x="3.26" y="3.26" width="36" height="36"/></clipPath></defs><title>Zeichenfläche 1 Kopie 3</title><g id="Ebene_4" data-name="Ebene 4"><g class="cls-2"><path class="cls-3" d="M3,22.12C6,20.26,9.78,17.74,16.07,14.2,20,12,24.91,11.94,27.46,15.48s1.59,8.5-3,11.33l-6.61,4-1.8,1.11c-1.85,1.12-2.78,1.85-2.74,4.45L13.38,48"/><path class="cls-4" d="M20.75,20.32c-3.51,2.22-6.53,3.84-10.17,6.06"/><path class="cls-3" d="M10.33,26.55c-1.39.81-4.84,2.32-4.94,6.4,0,2.32,0,7.16,0,7.16"/><path class="cls-5" d="M1.57,14.09C1.7,14,8.68,9.83,11.06,8.27,17.61,4,27.5,3.76,33.45,9.68h0a12.81,12.81,0,0,1,3.37,5.83,9.34,9.34,0,0,1,.5,2.77"/><path class="cls-5" d="M37.4,22.63c-.67,2.89-2.51,5.38-5,7.94a2,2,0,0,0-.09,2.65l6.37,8.44"/><line class="cls-5" x1="21.26" y1="30.16" x2="32.11" y2="45.78"/></g></g></svg>