<svg id="Ebene_1" data-name="Ebene 1" xmlns="http://www.w3.org/2000/svg" width="25.658mm" height="25.658mm" viewBox="0 0 72.73 72.73"><title>Map_Elemente</title><path d="M36.365,67.1l-1.851-2.68c-1.868-2.7-18.251-26.718-18.251-36.983a20.1,20.1,0,1,1,40.2,0c0,10.265-16.383,34.278-18.251,36.983Zm0-55.265a15.62,15.62,0,0,0-15.6,15.6c0,6.684,9.985,23.18,15.6,31.68,5.617-8.5,15.6-25,15.6-31.68A15.62,15.62,0,0,0,36.365,11.837Zm0,28.358A12.557,12.557,0,1,1,48.922,27.638,12.571,12.571,0,0,1,36.365,40.2Zm0-20.614a8.057,8.057,0,1,0,8.057,8.057A8.066,8.066,0,0,0,36.365,19.581Z" fill="#203745"/></svg>