<?xml version="1.0" encoding="utf-8"?>
<!-- Generator: Adobe Illustrator 25.4.1, SVG Export Plug-In . SVG Version: 6.00 Build 0)  -->
<svg version="1.1" id="Ebene_1" xmlns="http://www.w3.org/2000/svg" xmlns:xlink="http://www.w3.org/1999/xlink" x="0px" y="0px"
	 width="60px" height="60px" viewBox="0 0 60 60" style="enable-background:new 0 0 60 60;" xml:space="preserve">
<g>
	<circle cx="43.8" cy="51.3" r="1.6"/>
	<circle cx="47.7" cy="12.1" r="1.6"/>
	<path d="M58.2,50.4c-2.7-1.5-5.7-2.8-8.7-3.8c-3.2-1.1-6.5-1.8-9.8-2.2c-0.1,0-0.2,0-0.3,0l-2.1-3.8c0.8-0.1,1.5-0.1,2.3-0.2
		c3.3-0.4,6.7-1.1,9.8-2.2c3-1,5.9-2.3,8.7-3.8l1.8-1l-1.8-1c-2.8-1.5-5.7-2.8-8.7-3.7c-2.4-0.8-4.9-1.4-7.5-1.8l-2.3-4.3
		c8-0.9,14.7-3.8,17.3-5c0,0,0.1,0,0.1-0.1l2.7,1.6L59,16.5l0,0l-0.3-0.9c0,0,0,0,0-0.1c0,0,0,0,0,0c-0.1-0.3-0.5-1.3-1.4-2.7
		c0,0,0,0,0,0l0,0C54.9,9.1,49,3,36.3,4.8c-1.6,0.2-3.4,0.5-5.3,0.9c-0.2-0.1-0.4-0.3-0.6-0.4c-0.9-0.5-1.9-1-2.9-1.5
		c-1.7-0.8-3.4-1.3-5.2-1.7c-1.7-0.4-3.4-0.6-5.1-0.6L15,1.4l1,1.8c0.9,1.5,1.9,2.9,3,4.2c0.2,0.3,0.5,0.6,0.8,0.8
		c-5.5,1.3-10,2.5-10.3,2.6L0,13.2v2.3l9.4-2.3c1.7,1.8,7.7,7.2,19.9,9.2c0.7,0.1,1.5,0.2,2.2,0.3l1.9,3.5c-1.8,0-3.7,0.1-5.7,0.4
		c-3.3,0.4-6.7,1.1-9.8,2.2c-2.9,0.9-5.6,2.2-8.3,3.6H0v2.3h9.4c2.7,1.5,5.6,2.7,8.6,3.7c3.2,1,6.5,1.7,9.9,2.1
		c0.4,0,0.8,0.1,1.2,0.1l1.9,3.6c-1,0.1-2,0.1-3.1,0.3c-3.3,0.4-6.7,1.1-9.8,2.1c-2.8,0.9-5.6,2.1-8.2,3.5L0,44.3v14l10-5.8
		c2.5,1.4,5.2,2.5,8,3.4c3.2,1.1,6.5,1.8,9.8,2.2c2,0.2,4,0.4,5.9,0.4c0,0,0.1,0,0.1,0c1.9,0,3.8-0.1,5.8-0.3
		c3.3-0.4,6.7-1.1,9.9-2.1c3-1,5.9-2.2,8.7-3.7l1.8-1L58.2,50.4z M41.6,29c2.4,0.4,4.8,1,7.2,1.7c1.4,0.4,2.7,1,4.1,1.5h-13L41.6,29
		z M52.6,34.6c-1.2,0.5-2.5,1-3.8,1.4c-2.4,0.8-4.8,1.4-7.3,1.8l-1.7-3.2H52.6z M2.3,54.4v-6.2l5.4,3.1L2.3,54.4z M36.2,38.4l-2-3.8
		h3.1l1.9,3.6C38.1,38.2,37.2,38.3,36.2,38.4z M36.7,44.1c-1-0.1-2-0.1-3-0.1c-0.1,0-0.2,0-0.3,0l-1.8-3.4c0.7,0,1.3,0,2,0
		c0,0,0.1,0,0.1,0c0.4,0,0.7,0,1.1,0L36.7,44.1z M37.3,32.3h-3.1l2.1-3.8c1,0,1.9,0.1,3,0.2L37.3,32.3z M36.1,26.2l-1.8-3.4
		c0.3,0,0.5,0,0.8,0c0.8,0,1.5,0,2.3-0.1l2,3.7C38.2,26.3,37.1,26.3,36.1,26.2z M19.2,3.9c0.8,0.1,1.7,0.2,2.5,0.4
		c1.6,0.4,3.3,0.9,4.8,1.6c0.4,0.2,0.7,0.3,1.1,0.5c0.5,0.3,1.1,0.6,1.6,0.9c0.4,0.3,0.9,0.5,1.3,0.8c0.4,0.3,0.8,0.5,1.2,0.8
		c1.3,1,2.6,2.2,3.7,3.5l0,0c0.6,0.6,1.1,1.3,1.6,2c-0.8-0.1-1.7-0.2-2.5-0.4c-1.6-0.4-3.3-0.9-4.8-1.6C28.7,12,27.8,11.5,27,11
		c-0.8-0.5-1.6-1-2.4-1.6c0,0-0.1,0-0.1-0.1c-0.7-0.5-1.4-1.1-2.1-1.8c-0.6-0.5-1.1-1.1-1.6-1.7C20.2,5.3,19.7,4.6,19.2,3.9z
		 M29.7,20.1c-9.8-1.5-15.4-5.5-17.7-7.6c2.1-0.6,5.7-1.5,9.8-2.5c0.4,0.4,0.9,0.7,1.3,1.1c0.9,0.7,1.8,1.3,2.7,1.8
		c0.9,0.5,1.9,1,2.9,1.5c1.7,0.8,3.4,1.3,5.2,1.7c1.7,0.4,3.4,0.6,5.2,0.6l2,0.1l-1-1.8c-0.9-1.5-1.9-2.9-3-4.2
		c-1.1-1.2-2.3-2.4-3.5-3.4c1.1-0.2,2.1-0.4,3-0.5c13.6-1.9,18.4,5.6,19.6,8.3C52.9,16.9,41.3,21.9,29.7,20.1z M30.6,28.5
		c1.1-0.1,2.1-0.1,3.1-0.1c0,0,0,0,0,0l-2.1,3.9h-3.1L30.6,28.5z M18.7,36.1c-1.4-0.4-2.7-1-4.1-1.5h11.3l1.8,3.5
		C24.7,37.7,21.6,37,18.7,36.1z M26,32.3H14.9c1.2-0.5,2.5-1,3.8-1.4c3-1,6.1-1.7,9.2-2.1L26,32.3z M30.4,38.3l-2-3.8h3.1l2.1,3.9
		C32.6,38.4,31.5,38.4,30.4,38.3z M33.7,56.3c-1.8,0-3.7-0.1-5.7-0.4c-3.2-0.4-6.4-1.1-9.4-2.1c-2.2-0.7-4.3-1.6-6.4-2.6
		c2.1-1,4.2-1.9,6.4-2.6c3-1,6.2-1.7,9.4-2c2-0.2,3.8-0.3,5.7-0.3c1,0,2,0,3,0.1l-2.6,4.9l2.7,4.9C35.8,56.3,34.7,56.3,33.7,56.3z
		 M48.8,54c-3,1-6.2,1.7-9.4,2c-0.1,0-0.1,0-0.2,0l-2.5-4.7l2.5-4.7c0.1,0,0.2,0,0.3,0c3.2,0.4,6.4,1.1,9.4,2.1
		c2.2,0.7,4.3,1.6,6.4,2.6C53.2,52.4,51,53.3,48.8,54z"/>
</g>
</svg>
